<svg xmlns="http://www.w3.org/2000/svg" xmlns:xlink="http://www.w3.org/1999/xlink" width="2278pt" height="284pt" viewBox="0 0 2278 284"><g id="graph0" class="graph" transform="scale(1 1) rotate(0) translate(4 280)"><title>dependencies</title><polygon fill="#fff" stroke="transparent" points="-4 4 -4 -280 2274 -280 2274 4 -4 4"/><text x="1114.009" y="-42.4" fill="#000" font-family="sans-serif" font-size="14" font-weight="bold" text-anchor="start">Legend</text><polygon fill="#ffffb3" stroke="transparent" points="901 -10 901 -30 921 -30 921 -10 901 -10"/><text x="924.629" y="-15.4" fill="#000" font-family="sans-serif" font-size="14" text-anchor="start">Declarations</text><polygon fill="#8dd3c7" stroke="transparent" points="1014 -10 1014 -30 1034 -30 1034 -10 1014 -10"/><text x="1037.725" y="-15.4" fill="#000" font-family="sans-serif" font-size="14" text-anchor="start">Module</text><polygon fill="#80b1d3" stroke="transparent" points="1100 -10 1100 -30 1120 -30 1120 -10 1100 -10"/><text x="1123.781" y="-15.4" fill="#000" font-family="sans-serif" font-size="14" text-anchor="start">Bootstrap</text><polygon fill="#fdb462" stroke="transparent" points="1197 -10 1197 -30 1217 -30 1217 -10 1197 -10"/><text x="1220.673" y="-15.4" fill="#000" font-family="sans-serif" font-size="14" text-anchor="start">Providers</text><polygon fill="#fb8072" stroke="transparent" points="1293 -10 1293 -30 1313 -30 1313 -10 1293 -10"/><text x="1316.726" y="-15.4" fill="#000" font-family="sans-serif" font-size="14" text-anchor="start">Exports</text><g id="clust1" class="cluster"><title>cluster_AppModule</title><polygon fill="none" stroke="#000" stroke-dasharray="1 5" points="8 -70 8 -268 2262 -268 2262 -70 8 -70"/></g><g id="clust2" class="cluster"><title>cluster_AppModule_declarations</title><polygon fill="none" stroke="#000" points="168 -78 168 -130 2254 -130 2254 -78 168 -78"/></g><g id="clust17" class="cluster"><title>cluster_AppModule_imports</title><polygon fill="none" stroke="#000" points="16 -78 16 -130 160 -130 160 -78 16 -78"/></g><g id="clust19" class="cluster"><title>cluster_AppModule_bootstrap</title><polygon fill="none" stroke="#000" points="1093 -208 1093 -260 1217 -260 1217 -208 1093 -208"/></g><g id="node1" class="node"><title>AlertasComponent</title><polygon fill="#ffffb3" stroke="#000" points="2245.755 -122 2124.245 -122 2124.245 -86 2245.755 -86 2245.755 -122"/><text x="2185" y="-99.8" fill="#000" font-family="Times,serif" font-size="14" text-anchor="middle">AlertasComponent</text></g><g id="node15" class="node"><title>AppModule</title><polygon fill="#8dd3c7" stroke="#000" points="1196.657 -187 1193.657 -191 1172.657 -191 1169.657 -187 1113.343 -187 1113.343 -151 1196.657 -151 1196.657 -187"/><text x="1155" y="-164.8" fill="#000" font-family="Times,serif" font-size="14" text-anchor="middle">AppModule</text></g><g id="edge1" class="edge"><title>AlertasComponent-&gt;AppModule</title><path fill="none" stroke="#000" d="M2185,-122.3228C2185,-145.6602 2185,-183 2185,-183 2185,-183 1206.9746,-183 1206.9746,-183"/><polygon fill="#000" stroke="#000" points="1206.975 -179.5 1196.975 -183 1206.975 -186.5 1206.975 -179.5"/></g><g id="node2" class="node"><title>AppComponent</title><polygon fill="#ffffb3" stroke="#000" points="2105.94 -122 2000.06 -122 2000.06 -86 2105.94 -86 2105.94 -122"/><text x="2053" y="-99.8" fill="#000" font-family="Times,serif" font-size="14" text-anchor="middle">AppComponent</text></g><g id="edge2" class="edge"><title>AppComponent-&gt;AppModule</title><path fill="none" stroke="#000" d="M2053,-122.2921C2053,-144.2057 2053,-178 2053,-178 2053,-178 1206.8092,-178 1206.8092,-178"/><polygon fill="#000" stroke="#000" points="1206.809 -174.5 1196.809 -178 1206.809 -181.5 1206.809 -174.5"/></g><g id="node3" class="node"><title>CadastroComponent</title><polygon fill="#ffffb3" stroke="#000" points="1982.594 -122 1851.406 -122 1851.406 -86 1982.594 -86 1982.594 -122"/><text x="1917" y="-99.8" fill="#000" font-family="Times,serif" font-size="14" text-anchor="middle">CadastroComponent</text></g><g id="edge3" class="edge"><title>CadastroComponent-&gt;AppModule</title><path fill="none" stroke="#000" d="M1917,-122.0267C1917,-142.7672 1917,-174 1917,-174 1917,-174 1206.7813,-174 1206.7813,-174"/><polygon fill="#000" stroke="#000" points="1206.781 -170.5 1196.781 -174 1206.781 -177.5 1206.781 -170.5"/></g><g id="node4" class="node"><title>DeletePostagemComponent</title><polygon fill="#ffffb3" stroke="#000" points="1833.302 -122 1660.698 -122 1660.698 -86 1833.302 -86 1833.302 -122"/><text x="1747" y="-99.8" fill="#000" font-family="Times,serif" font-size="14" text-anchor="middle">DeletePostagemComponent</text></g><g id="edge4" class="edge"><title>DeletePostagemComponent-&gt;AppModule</title><path fill="none" stroke="#000" d="M1747,-122.1061C1747,-141.3391 1747,-169 1747,-169 1747,-169 1207.1006,-169 1207.1006,-169"/><polygon fill="#000" stroke="#000" points="1207.101 -165.5 1197.101 -169 1207.101 -172.5 1207.101 -165.5"/></g><g id="node5" class="node"><title>DeleteTemaComponent</title><polygon fill="#ffffb3" stroke="#000" points="1642.737 -122 1493.263 -122 1493.263 -86 1642.737 -86 1642.737 -122"/><text x="1568" y="-99.8" fill="#000" font-family="Times,serif" font-size="14" text-anchor="middle">DeleteTemaComponent</text></g><g id="edge5" class="edge"><title>DeleteTemaComponent-&gt;AppModule</title><path fill="none" stroke="#000" d="M1568,-122.302C1568,-140.2699 1568,-165 1568,-165 1568,-165 1206.8735,-165 1206.8735,-165"/><polygon fill="#000" stroke="#000" points="1206.873 -161.5 1196.873 -165 1206.873 -168.5 1206.873 -161.5"/></g><g id="node6" class="node"><title>FeedComponent</title><polygon fill="#ffffb3" stroke="#000" points="1475.045 -122 1366.955 -122 1366.955 -86 1475.045 -86 1475.045 -122"/><text x="1421" y="-99.8" fill="#000" font-family="Times,serif" font-size="14" text-anchor="middle">FeedComponent</text></g><g id="edge6" class="edge"><title>FeedComponent-&gt;AppModule</title><path fill="none" stroke="#000" d="M1421,-122.027C1421,-138.3976 1421,-160 1421,-160 1421,-160 1206.8551,-160 1206.8551,-160"/><polygon fill="#000" stroke="#000" points="1206.855 -156.5 1196.855 -160 1206.855 -163.5 1206.855 -156.5"/></g><g id="node7" class="node"><title>FooterComponent</title><polygon fill="#ffffb3" stroke="#000" points="1348.881 -122 1231.119 -122 1231.119 -86 1348.881 -86 1348.881 -122"/><text x="1290" y="-99.8" fill="#000" font-family="Times,serif" font-size="14" text-anchor="middle">FooterComponent</text></g><g id="edge7" class="edge"><title>FooterComponent-&gt;AppModule</title><path fill="none" stroke="#000" d="M1290,-122.1871C1290,-137.1824 1290,-156 1290,-156 1290,-156 1206.9748,-156 1206.9748,-156"/><polygon fill="#000" stroke="#000" points="1206.975 -152.5 1196.975 -156 1206.975 -159.5 1206.975 -152.5"/></g><g id="node8" class="node"><title>HomeComponent</title><polygon fill="#ffffb3" stroke="#000" points="1212.545 -122 1097.455 -122 1097.455 -86 1212.545 -86 1212.545 -122"/><text x="1155" y="-99.8" fill="#000" font-family="Times,serif" font-size="14" text-anchor="middle">HomeComponent</text></g><g id="edge8" class="edge"><title>HomeComponent-&gt;AppModule</title><path fill="none" stroke="#000" d="M1155,-122.1061C1155,-122.1061 1155,-140.991 1155,-140.991"/><polygon fill="#000" stroke="#000" points="1151.5 -140.991 1155 -150.991 1158.5 -140.991 1151.5 -140.991"/></g><g id="node9" class="node"><title>LoginComponent</title><polygon fill="#ffffb3" stroke="#000" points="1079.276 -122 964.724 -122 964.724 -86 1079.276 -86 1079.276 -122"/><text x="1022" y="-99.8" fill="#000" font-family="Times,serif" font-size="14" text-anchor="middle">LoginComponent</text></g><g id="edge9" class="edge"><title>LoginComponent-&gt;AppModule</title><path fill="none" stroke="#000" d="M1022,-122.1871C1022,-137.1824 1022,-156 1022,-156 1022,-156 1103.2829,-156 1103.2829,-156"/><polygon fill="#000" stroke="#000" points="1103.283 -159.5 1113.283 -156 1103.283 -152.5 1103.283 -159.5"/></g><g id="node10" class="node"><title>NavbarComponent</title><polygon fill="#ffffb3" stroke="#000" points="946.03 -122 823.97 -122 823.97 -86 946.03 -86 946.03 -122"/><text x="885" y="-99.8" fill="#000" font-family="Times,serif" font-size="14" text-anchor="middle">NavbarComponent</text></g><g id="edge10" class="edge"><title>NavbarComponent-&gt;AppModule</title><path fill="none" stroke="#000" d="M885,-122.027C885,-138.3976 885,-160 885,-160 885,-160 1103.1087,-160 1103.1087,-160"/><polygon fill="#000" stroke="#000" points="1103.109 -163.5 1113.109 -160 1103.109 -156.5 1103.109 -163.5"/></g><g id="node11" class="node"><title>PerfilLateralComponent</title><polygon fill="#ffffb3" stroke="#000" points="806.07 -122 653.93 -122 653.93 -86 806.07 -86 806.07 -122"/><text x="730" y="-99.8" fill="#000" font-family="Times,serif" font-size="14" text-anchor="middle">PerfilLateralComponent</text></g><g id="edge11" class="edge"><title>PerfilLateralComponent-&gt;AppModule</title><path fill="none" stroke="#000" d="M730,-122.302C730,-140.2699 730,-165 730,-165 730,-165 1103.0862,-165 1103.0862,-165"/><polygon fill="#000" stroke="#000" points="1103.086 -168.5 1113.086 -165 1103.086 -161.5 1103.086 -168.5"/></g><g id="node12" class="node"><title>PostTemaComponent</title><polygon fill="#ffffb3" stroke="#000" points="635.823 -122 498.177 -122 498.177 -86 635.823 -86 635.823 -122"/><text x="567" y="-99.8" fill="#000" font-family="Times,serif" font-size="14" text-anchor="middle">PostTemaComponent</text></g><g id="edge12" class="edge"><title>PostTemaComponent-&gt;AppModule</title><path fill="none" stroke="#000" d="M567,-122.1061C567,-141.3391 567,-169 567,-169 567,-169 1103.1839,-169 1103.1839,-169"/><polygon fill="#000" stroke="#000" points="1103.184 -172.5 1113.184 -169 1103.184 -165.5 1103.184 -172.5"/></g><g id="node13" class="node"><title>PutPostagemComponent</title><polygon fill="#ffffb3" stroke="#000" points="480.444 -122 325.556 -122 325.556 -86 480.444 -86 480.444 -122"/><text x="403" y="-99.8" fill="#000" font-family="Times,serif" font-size="14" text-anchor="middle">PutPostagemComponent</text></g><g id="edge13" class="edge"><title>PutPostagemComponent-&gt;AppModule</title><path fill="none" stroke="#000" d="M403,-122.0267C403,-142.7672 403,-174 403,-174 403,-174 1103.2283,-174 1103.2283,-174"/><polygon fill="#000" stroke="#000" points="1103.228 -177.5 1113.228 -174 1103.228 -170.5 1103.228 -177.5"/></g><g id="node14" class="node"><title>PutTemaComponent</title><polygon fill="#ffffb3" stroke="#000" points="307.878 -122 176.122 -122 176.122 -86 307.878 -86 307.878 -122"/><text x="242" y="-99.8" fill="#000" font-family="Times,serif" font-size="14" text-anchor="middle">PutTemaComponent</text></g><g id="edge14" class="edge"><title>PutTemaComponent-&gt;AppModule</title><path fill="none" stroke="#000" d="M242,-122.2921C242,-144.2057 242,-178 242,-178 242,-178 1103.097,-178 1103.097,-178"/><polygon fill="#000" stroke="#000" points="1103.097 -181.5 1113.097 -178 1103.097 -174.5 1103.097 -181.5"/></g><g id="node17" class="node"><title>AppComponent</title><polygon fill="#80b1d3" stroke="#000" points="1209.439 -252 1100.561 -252 1100.561 -216 1209.439 -216 1209.439 -252"/><text x="1155" y="-229.8" fill="#000" font-family="Times,serif" font-size="14" text-anchor="middle">AppComponent</text></g><g id="edge16" class="edge"><title>AppModule-&gt;AppComponent</title><path fill="none" stroke="#000" stroke-dasharray="1 5" d="M1155,-187.1061C1155,-187.1061 1155,-205.991 1155,-205.991"/><polygon fill="#000" stroke="#000" points="1151.5 -205.991 1155 -215.991 1158.5 -205.991 1151.5 -205.991"/></g><g id="node16" class="node"><title>AppRoutingModule</title><polygon fill="#8dd3c7" stroke="#000" points="152.274 -122 149.274 -126 128.274 -126 125.274 -122 23.726 -122 23.726 -86 152.274 -86 152.274 -122"/><text x="88" y="-99.8" fill="#000" font-family="Times,serif" font-size="14" text-anchor="middle">AppRoutingModule</text></g><g id="edge15" class="edge"><title>AppRoutingModule-&gt;AppModule</title><path fill="none" stroke="#000" d="M88,-122.3228C88,-145.6602 88,-183 88,-183 88,-183 1103.1723,-183 1103.1723,-183"/><polygon fill="#000" stroke="#000" points="1103.172 -186.5 1113.172 -183 1103.172 -179.5 1103.172 -186.5"/></g></g></svg>